<svg xmlns="http://www.w3.org/2000/svg" viewBox="0 0 140.73 129.76"><defs><style>.cls-1{fill:#3998d3;}.cls-2{fill:#2b2b3b;}.cls-3{fill:#e5e516;}.cls-4{fill:#ffc71b;}.cls-5{fill:#e1e1e1;}</style></defs><title>DTScolor</title><g id="Layer_2" data-name="Layer 2"><g id="Layer_4" data-name="Layer 4"><path class="cls-1" d="M47.47,125.76A16,16,0,0,1,34,118.39L6.51,75.47a16,16,0,0,1,4.87-22.1L84.68,6.51a16,16,0,0,1,22.1,4.86l27.44,42.92a16,16,0,0,1-4.87,22.1l-73.3,46.86A15.8,15.8,0,0,1,47.47,125.76Z"/><path class="cls-2" d="M93.26,8a12,12,0,0,1,10.15,5.53l27.44,42.92A12,12,0,0,1,127.2,73L53.9,119.88a11.83,11.83,0,0,1-6.43,1.88,12,12,0,0,1-10.15-5.52L9.88,73.31a12,12,0,0,1,3.65-16.57L86.83,9.88A11.92,11.92,0,0,1,93.26,8m0-8h0A19.94,19.94,0,0,0,82.52,3.14L9.22,50A20,20,0,0,0,3.14,77.62l27.44,42.93a20,20,0,0,0,27.63,6.07l73.3-46.86a20,20,0,0,0,6.08-27.62L110.15,9.22A19.94,19.94,0,0,0,93.26,0Z"/><path class="cls-3" d="M103.41,13.53l27.43,42.91A12,12,0,0,1,127.2,73L90.72,96.34c-14.71-27.06-.22-42-20-76.16L86.83,9.88A12,12,0,0,1,103.41,13.53Z"/><path class="cls-4" d="M86.93,9.81c19.79,34.17,5.3,49.1,20,76.16L70.12,109.51a12,12,0,0,1-16.58-3.65L26.1,63a12,12,0,0,1,3.65-16.58Z"/><path class="cls-1" d="M70.71,20.18c19.79,34.16,5.3,49.1,20,76.16L53.9,119.88a12,12,0,0,1-16.58-3.65L9.88,73.31a12,12,0,0,1,3.65-16.57Z"/><path class="cls-1" d="M81.46,13.32c19.78,34.16,5.3,49.09,20,76.15L64.64,113a12,12,0,0,1-16.58-3.64L20.63,66.45a12,12,0,0,1,3.64-16.58Z"/><path class="cls-5" d="M23.89,71.44A47.11,47.11,0,0,0,77.8,93.51c5.41-1.58,10.86-3,12.29-10,1.16-5.66-2.46-10.32-8.25-9.45-1.91.28-3.79.83-5.7,1.09a7.52,7.52,0,0,0-6.87,6.08C68.81,83,67.72,83.67,66,83.84A29,29,0,0,1,43,76.45c-1.57-1.38-2.06-2.68-1.24-4.66.94-2.3,1.09-4.74-.56-6.8a66.26,66.26,0,0,0-5.82-6.48,7.15,7.15,0,0,0-10.24.29A11.87,11.87,0,0,0,23.89,71.44Z"/></g></g></svg>