<svg xmlns="http://www.w3.org/2000/svg" viewBox="0 0 105.22 96.12"><defs><style>.cls-1{fill:#3998d3;}</style></defs><title>DTSflat</title><g id="Layer_2" data-name="Layer 2"><g id="Layer_1-2" data-name="Layer 1"><path class="cls-1" d="M29.55,88.74c-.15-.11-.29-.23-.44-.36l-.4-.39A7.49,7.49,0,0,0,29.55,88.74Z"/><path class="cls-1" d="M35.25,90.74h0Z"/><path class="cls-1" d="M36.94,90.59l-.41.08h-.14a2.66,2.66,0,0,1-.28,0h-.35l.57,0C36.54,90.66,36.73,90.63,36.94,90.59Z"/><path class="cls-1" d="M38.77,90.05c.25-.1.48-.21.72-.33L39,90l-.61.24-.27.09-.25.07-.09,0-.1,0,.27-.08.41-.13Z"/><path class="cls-1" d="M76.14,66.51l4.15-2.62L40.15,89.34a2.61,2.61,0,0,1-.28.17l.28-.17,8.09-5.14,0,0,4.14-2.63L68,71.67Z"/><path class="cls-1" d="M30.76,28.53l22.12-14h0Zm5,62.19a4.35,4.35,0,0,1-.51,0,4.85,4.85,0,0,0,.66,0Z"/><path class="cls-1" d="M35.76,90.72a4.35,4.35,0,0,1-.51,0,4.85,4.85,0,0,0,.66,0Zm-5-62.19,22.12-14h0Zm67,23.71c.24-.3.45-.6.66-.92A9.69,9.69,0,0,1,97.79,52.24Z"/><path class="cls-1" d="M97.79,52.24c.24-.3.45-.6.66-.92A9.69,9.69,0,0,1,97.79,52.24Z"/><path class="cls-1" d="M97.79,52.24c.24-.3.45-.6.66-.92A9.69,9.69,0,0,1,97.79,52.24Z"/><path class="cls-1" d="M97.79,52.24c.24-.3.45-.6.66-.92A9.69,9.69,0,0,1,97.79,52.24Z"/><path class="cls-1" d="M103,38.84,82.17,6.62A14.45,14.45,0,0,0,69.94,0a14.61,14.61,0,0,0-7.78,2.25L6.69,37.43a14.3,14.3,0,0,0-4.4,19.86L23.05,89.5a14.61,14.61,0,0,0,20,4.37L98.54,58.7A14.33,14.33,0,0,0,103,38.84Zm-67.7,51.9a4.35,4.35,0,0,0,.51,0h.15A4.85,4.85,0,0,1,35.25,90.74Zm4.44-2.14a3.24,3.24,0,0,1-.35.21l-.27.14-.42.22-.59.23-.14,0-.09,0-.18,0-.1,0h0l-.08,0L37,89.7l-.17,0h0l-.36.07h-.11l-.18,0H34.85l-.18,0h-.23l0,0-.26,0a2.7,2.7,0,0,1-.41-.07l-.13,0-.06,0h-.1l-.12,0h-.05l-.48-.13a8.18,8.18,0,0,1-1.4-.59l-.19-.1-.31-.19v-.4h-.59c-.17-.13-.35-.28-.57-.47l-.37-.36-.06-.07A3.31,3.31,0,0,1,29,87a4.78,4.78,0,0,1-.34-.42c-.1-.14-.2-.27-.3-.44L7.57,53.92a8.15,8.15,0,0,1,2.5-11.24l8-5.09,4.24-2.68,8.89-5.65L60.7,10.59c7.53,13.19,8,22.41,8.56,31.33C69.7,49.67,70.12,57,75,66.21Z"/><polygon class="cls-1" points="52.88 14.51 52.88 14.52 30.76 28.53 52.88 14.51"/><path class="cls-1" d="M67.54,62a8,8,0,0,1-2.12,4.16c-1.84,1.87-4.51,2.59-7.18,3.37A35.81,35.81,0,0,1,18.72,55c-.45-.67-.87-1.35-1.28-2.06A9,9,0,0,1,18,44a5.56,5.56,0,0,1,.42-.54,5.44,5.44,0,0,1,7.76-.21,49.36,49.36,0,0,1,4.4,4.85A4.8,4.8,0,0,1,31,53.25a2.7,2.7,0,0,0,1,3.49A22.1,22.1,0,0,0,49.27,62.3a2.46,2.46,0,0,0,2.51-2A5.71,5.71,0,0,1,57,55.74c1.45-.19,2.87-.6,4.32-.81a6,6,0,0,1,1.32-.06C66.21,55,68.33,58.22,67.54,62Z"/></g></g></svg>